<?xml version="1.0" encoding="UTF-8"?>
<svg id="Camada_1" xmlns="http://www.w3.org/2000/svg" version="1.1" viewBox="0 0 118.44 150">
  <!-- Generator: Adobe Illustrator 30.4.0, SVG Export Plug-In . SVG Version: 2.1.4 Build 226)  -->
  <defs>
    <style>
      .st0 {
        fill: #ff7262;
      }

      .st1 {
        fill: #a259ff;
      }

      .st2 {
        fill: #1abcfe;
      }

      .st3 {
        fill: #f24e1e;
      }

      .st4 {
        fill: #0acf83;
      }
    </style>
  </defs>
  <path class="st4" d="M34.39,149.5c13.74,0,24.83-11.09,24.83-24.83v-24.83h-24.83c-13.74,0-24.83,11.09-24.83,24.83s11.09,24.83,24.83,24.83Z"/>
  <path class="st1" d="M9.56,75c0-13.74,11.09-24.83,24.83-24.83h24.83v49.67h-24.83c-13.74,0-24.83-11.09-24.83-24.83Z"/>
  <path class="st3" d="M9.56,25.33C9.56,11.59,20.64.5,34.39.5h24.83v49.67h-24.83c-13.74,0-24.83-11.09-24.83-24.83Z"/>
  <path class="st0" d="M59.22.5h24.83c13.74,0,24.83,11.09,24.83,24.83s-11.09,24.83-24.83,24.83h-24.83V.5Z"/>
  <path class="st2" d="M108.89,75c0,13.74-11.09,24.83-24.83,24.83s-24.83-11.09-24.83-24.83,11.09-24.83,24.83-24.83,24.83,11.09,24.83,24.83Z"/>
</svg>