<?xml version="1.0" encoding="UTF-8"?>
<svg id="Camada_1" xmlns="http://www.w3.org/2000/svg" version="1.1" viewBox="0 0 150 150">
  <!-- Generator: Adobe Illustrator 30.4.0, SVG Export Plug-In . SVG Version: 2.1.4 Build 226)  -->
  <defs>
    <style>
      .st0 {
        fill: #fff;
      }

      .st1 {
        fill: #e44d26;
      }

      .st2 {
        fill: #f16529;
      }

      .st3 {
        fill: #ebebeb;
      }
    </style>
  </defs>
  <path class="st1" d="M23.47,132.16L12,3.55h126l-11.48,128.59-51.6,14.3-51.46-14.28Z"/>
  <path class="st2" d="M75,135.52l41.69-11.56,9.81-109.89h-51.5v121.45Z"/>
  <path class="st3" d="M75,61.77h-20.87l-1.44-16.15h22.31v-15.77h-39.55l.38,4.23,3.88,43.47h35.3v-15.77ZM75,102.73l-.07.02-17.57-4.74-1.12-12.58h-15.84l2.21,24.77,32.31,8.97.07-.02v-16.41Z"/>
  <path class="st0" d="M74.94,61.77v15.77h19.42l-1.83,20.46-17.59,4.75v16.41l32.34-8.96.24-2.66,3.71-41.53.38-4.24h-36.67ZM74.94,29.84v15.77h38.1l.32-3.54.72-8,.38-4.23h-39.51Z"/>
</svg>