<?xml version="1.0" encoding="UTF-8"?>
<svg id="Camada_1" xmlns="http://www.w3.org/2000/svg" version="1.1" viewBox="0 0 150 220.44">
  <!-- Generator: Adobe Illustrator 30.4.0, SVG Export Plug-In . SVG Version: 2.1.4 Build 226)  -->
  <defs>
    <style>
      .st0 {
        fill: #5382a1;
      }

      .st1 {
        fill: #e76f00;
      }
    </style>
  </defs>
  <path class="st0" d="M48.31,165.82s-7.77,4.52,5.53,6.05c16.12,1.84,24.35,1.58,42.11-1.79,0,0,4.67,2.93,11.19,5.46-39.81,17.06-90.11-.99-58.84-9.73M43.44,143.55s-8.72,6.45,4.6,7.83c17.22,1.78,30.81,1.92,54.34-2.61,0,0,3.25,3.3,8.37,5.1-48.14,14.08-101.76,1.11-67.31-10.32"/>
  <path class="st1" d="M84.46,105.78c9.81,11.29-2.58,21.46-2.58,21.46,0,0,24.91-12.86,13.47-28.96-10.68-15.02-18.88-22.48,25.48-48.2,0,0-69.63,17.39-36.37,55.71"/>
  <path class="st0" d="M137.12,182.29s5.75,4.74-6.33,8.4c-22.98,6.96-95.65,9.06-115.84.28-7.26-3.16,6.35-7.54,10.63-8.46,4.46-.97,7.02-.79,7.02-.79-8.07-5.69-52.16,11.16-22.4,15.99,81.18,13.16,147.98-5.93,126.92-15.43M52.05,120.48s-36.96,8.78-13.09,11.97c10.08,1.35,30.18,1.04,48.89-.52,15.3-1.29,30.66-4.03,30.66-4.03,0,0-5.39,2.31-9.3,4.97-37.54,9.87-110.05,5.28-89.18-4.82,17.65-8.53,32.01-7.57,32.01-7.57M118.36,157.54c38.16-19.83,20.52-38.88,8.2-36.32-3.02.63-4.36,1.17-4.36,1.17,0,0,1.12-1.75,3.26-2.51,24.36-8.57,43.1,25.26-7.86,38.66,0,0,.59-.53.77-1"/>
  <path class="st1" d="M95.35,8.53s21.13,21.14-20.04,53.65c-33.02,26.08-7.53,40.94-.01,57.93-19.27-17.39-33.42-32.7-23.93-46.94,13.93-20.91,52.51-31.05,43.99-64.63"/>
  <path class="st0" d="M55.8,211.27c36.63,2.34,92.87-1.3,94.2-18.63,0,0-2.56,6.57-30.27,11.79-31.26,5.88-69.82,5.2-92.69,1.43,0,0,4.68,3.87,28.75,5.42"/>
</svg>