<?xml version="1.0" encoding="UTF-8"?>
<svg id="Camada_1" xmlns="http://www.w3.org/2000/svg" version="1.1" viewBox="0 0 150 150">
  <!-- Generator: Adobe Illustrator 30.4.0, SVG Export Plug-In . SVG Version: 2.1.4 Build 226)  -->
  <defs>
    <style>
      .st0 {
        fill: #659ad2;
      }

      .st1 {
        fill: #fff;
      }

      .st2 {
        fill: #00599c;
      }

      .st3 {
        fill: #004482;
      }
    </style>
  </defs>
  <path class="st2" d="M136.49,110.7c1-1.73,1.62-3.68,1.62-5.43v-60.78c0-1.75-.62-3.7-1.62-5.43l-62.04,35.82,62.04,35.82Z"/>
  <path class="st3" d="M79.96,145.2l52.64-30.39c1.52-.88,2.9-2.39,3.89-4.12l-62.04-35.82L12.4,110.7c1,1.73,2.38,3.24,3.89,4.12l52.64,30.39c3.03,1.75,8,1.75,11.03,0h0Z"/>
  <path class="st0" d="M136.49,39.06c-1-1.73-2.38-3.25-3.89-4.12L79.96,4.55c-3.03-1.75-8-1.75-11.03,0l-52.64,30.39c-3.03,1.75-5.51,6.04-5.51,9.54v60.78c0,1.75.62,3.7,1.62,5.43l62.05-35.82,62.04-35.82Z"/>
  <path class="st1" d="M74.45,32.44c-23.4,0-42.44,19.04-42.44,42.44s19.04,42.44,42.44,42.44c15.1,0,29.19-8.13,36.75-21.21l-18.36-10.63c-3.79,6.55-10.83,10.61-18.39,10.61-11.7,0-21.22-9.52-21.22-21.22s9.52-21.22,21.22-21.22c7.55,0,14.6,4.07,18.38,10.61l18.37-10.63c-7.57-13.08-21.65-21.21-36.75-21.21h0ZM107.46,67.8v4.72h-4.72v4.71h4.72v4.72h4.71v-4.72h4.71v-4.71h-4.71v-4.72h-4.71ZM125.14,67.8v4.72h-4.71v4.71h4.71v4.72h4.72v-4.72h4.71v-4.71h-4.71v-4.72h-4.72Z"/>
</svg>