<?xml version="1.0" encoding="UTF-8"?>
<svg id="Camada_1" xmlns="http://www.w3.org/2000/svg" version="1.1" viewBox="0 0 150 150">
  <!-- Generator: Adobe Illustrator 30.4.0, SVG Export Plug-In . SVG Version: 2.1.4 Build 226)  -->
  <defs>
    <style>
      .st0 {
        fill: #fff;
      }

      .st1 {
        fill: #9b4f96;
      }

      .st2 {
        fill: #68217a;
      }
    </style>
  </defs>
  <path class="st1" d="M135.72,35.67L78.67,2.83c-.94-.59-2.24-.83-3.66-.83s-2.72.35-3.66.83L14.65,35.78c-2.01,1.18-3.43,4.13-3.43,6.38v65.79c0,1.3.24,2.83,1.18,4.13l126.16-73.24c-.71-1.42-1.77-2.48-2.83-3.19Z"/>
  <path class="st2" d="M12.05,111.97c.59.94,1.42,1.77,2.24,2.24l56.94,32.96c.94.59,2.24.83,3.66.83s2.72-.35,3.66-.83l56.7-32.96c2.01-1.18,3.43-4.13,3.43-6.38V42.04c0-1.06-.12-2.24-.71-3.31,0,0-125.92,73.24-125.92,73.24Z"/>
  <path class="st0" d="M100.17,89.29c-4.96,8.74-14.41,14.65-25.16,14.65-15.95,0-28.94-12.99-28.94-28.94s12.99-28.94,28.94-28.94c10.75,0,20.2,5.91,25.16,14.77l15.36-8.86c-8.03-14.06-23.15-23.62-40.52-23.62-25.75,0-46.66,20.91-46.66,46.66s20.91,46.66,46.66,46.66c17.25,0,32.37-9.45,40.4-23.39,0,0-15.24-8.98-15.24-8.98ZM113.99,77.6l1.06-5.08h-4.96v-5.55h6.02l1.42-7.32h5.79l-1.42,7.21h4.49l1.42-7.21h5.67l-1.42,7.21h2.83v5.55h-3.9l-1.06,5.08h4.96v5.55h-6.02l-1.42,7.09h-5.79l1.42-7.09h-4.49l-1.42,7.09h-5.67l1.42-7.09h-2.83v-5.55h3.9v.12ZM119.66,77.6h4.49l1.06-5.08h-4.49l-1.06,5.08Z"/>
</svg>