<?xml version="1.0" encoding="UTF-8"?>
<svg id="Camada_1" xmlns="http://www.w3.org/2000/svg" version="1.1" viewBox="0 0 150 150">
  <!-- Generator: Adobe Illustrator 30.4.0, SVG Export Plug-In . SVG Version: 2.1.4 Build 226)  -->
  <defs>
    <style>
      .st0 {
        fill: #fff;
      }

      .st1 {
        fill: #33a9dc;
      }

      .st2 {
        fill: #1572b6;
      }

      .st3 {
        fill: #ebebeb;
      }
    </style>
  </defs>
  <path class="st2" d="M22.35,133.4L10.63,2h128.73l-11.73,131.38-52.72,14.62s-52.57-14.6-52.57-14.6Z"/>
  <path class="st1" d="M75,136.83l42.6-11.81,10.02-112.27h-52.62s0,124.08,0,124.08Z"/>
  <path class="st0" d="M75,60.35h21.33l1.47-16.5h-22.8v-16.12h40.41l-.39,4.32-3.96,44.41h-36.06s0-16.12,0-16.12Z"/>
  <path class="st3" d="M75.1,102.21l-.07.02-17.95-4.85-1.15-12.85h-16.18l2.26,25.31,33.01,9.16.07-.02v-16.77Z"/>
  <path class="st0" d="M94.96,75.79l-1.94,21.58-17.97,4.85v16.77l33.04-9.16.24-2.72,2.8-31.32h-16.17Z"/>
  <path class="st3" d="M75.06,27.73v16.12h-38.93l-.32-3.62-.73-8.17-.39-4.32s40.37,0,40.37,0ZM75,60.35v16.12h-17.72l-.32-3.62-.74-8.17-.38-4.32h19.16Z"/>
</svg>