<?xml version="1.0" encoding="UTF-8"?>
<svg id="Layer_1" xmlns="http://www.w3.org/2000/svg" version="1.1" viewBox="0 0 250 250">
  <!-- Generator: Adobe Illustrator 30.4.0, SVG Export Plug-In . SVG Version: 2.1.4 Build 226)  -->
  <path class="st0" d="M125.01,2.59C55.97,2.59,0,58.55,0,127.59,0,182.82,35.82,229.67,85.49,246.2c6.24,1.16,8.54-2.71,8.54-6.01,0-2.98-.12-12.83-.17-23.27-34.77,7.56-42.11-14.75-42.11-14.75-5.69-14.45-13.88-18.29-13.88-18.29-11.34-7.76.85-7.6.85-7.6,12.55.88,19.16,12.88,19.16,12.88,11.15,19.11,29.24,13.58,36.37,10.39,1.12-8.08,4.36-13.6,7.94-16.72-27.76-3.16-56.95-13.88-56.95-61.77,0-13.65,4.89-24.8,12.88-33.55-1.3-3.15-5.58-15.86,1.21-33.08,0,0,10.49-3.36,34.38,12.81,9.97-2.77,20.67-4.16,31.29-4.21,10.62.05,21.32,1.44,31.31,4.21,23.86-16.17,34.34-12.81,34.34-12.81,6.8,17.22,2.53,29.93,1.23,33.08,8.01,8.76,12.86,19.91,12.86,33.55,0,48.01-29.24,58.58-57.08,61.68,4.49,3.88,8.48,11.49,8.48,23.15,0,16.72-.14,30.19-.14,34.3,0,3.33,2.25,7.22,8.59,6,49.64-16.55,85.41-63.39,85.41-118.59C250,58.57,194.02,2.6,125,2.6h.01Z"/>
  <path class="st1" d="M46.47,182.06c-.28.62-1.25.81-2.14.38-.91-.41-1.42-1.25-1.12-1.88.27-.64,1.25-.82,2.15-.39.91.41,1.43,1.26,1.11,1.88h0ZM51.54,187.71c-.59.55-1.76.3-2.55-.58-.82-.87-.97-2.03-.37-2.6.62-.55,1.75-.29,2.57.58.82.88.98,2.04.35,2.6h0ZM56.47,194.9c-.77.53-2.02.04-2.79-1.08-.77-1.11-.77-2.45.02-2.98.77-.53,2.01-.05,2.79,1.05.76,1.13.76,2.46-.02,3.01h0ZM63.22,201.86c-.68.76-2.14.55-3.21-.48-1.09-1.01-1.4-2.44-.71-3.2.7-.76,2.16-.55,3.24.48,1.09,1.01,1.42,2.44.69,3.19h-.01ZM72.54,205.9c-.3.98-1.71,1.42-3.13,1.01-1.41-.43-2.34-1.57-2.05-2.56.29-.99,1.7-1.45,3.13-1,1.41.43,2.34,1.56,2.05,2.56h0ZM82.76,206.64c.04,1.03-1.17,1.88-2.65,1.9-1.5.04-2.71-.8-2.72-1.82,0-1.04,1.18-1.88,2.67-1.91,1.48-.03,2.7.8,2.7,1.82h0ZM92.29,205.03c.18,1-.85,2.04-2.33,2.31-1.45.27-2.79-.36-2.98-1.35-.18-1.03.87-2.06,2.32-2.33,1.48-.25,2.8.35,2.99,1.37h0Z"/>
</svg>