<?xml version="1.0" encoding="UTF-8"?>
<svg id="Camada_1" xmlns="http://www.w3.org/2000/svg" version="1.1" viewBox="0 0 250 250">
  <!-- Generator: Adobe Illustrator 30.4.0, SVG Export Plug-In . SVG Version: 2.1.4 Build 226)  -->
  <path d="M75.08,30.68L125.11,2l50,28.88c-1.83,3.06-3.66,6.14-5.52,9.18l-44.51-25.61c-14.83,8.54-29.65,17.09-44.5,25.61l-5.5-9.37h0ZM94.19,47.35l30.7-19.13,30.73,19.11-3.07,4.92-15.44-8.93c-1.65,15.5-3.42,31-5.03,46.49,6.87,4.03,13.78,7.99,20.67,11.98l37.75-27.6-15.42-8.94c.9-1.7,1.76-3.43,2.67-5.12,10.63,5.72,21.28,11.38,31.91,17.09l-1.21,36.21-5.74-.22v-17.86l-42.83,18.89v23.74l42.83,18.88v-17.86l5.73-.2c.42,12.07.84,24.14,1.21,36.22l-31.91,17.07c-.88-1.72-1.79-3.41-2.66-5.14,5.15-2.95,10.28-5.95,15.42-8.92l-37.95-27.81-20.7,11.98,5.27,46.69,15.44-8.93,3.07,4.91-30.5,19.12-30.93-19.12,3.08-4.91,15.63,8.94,5.05-46.71c.09-.25-.2-.3-.34-.4l-20.15-11.56-37.95,27.81,15.43,9.13-2.86,5.12c-10.58-5.69-21.16-11.37-31.72-17.09.33-12.07.66-24.13,1.02-36.21l5.9.21v17.88l42.86-18.9v-23.93l-42.86-18.9v17.87l-5.9.21c-.35-12-.71-24.02-1.01-36.03l31.7-17.27,2.87,5.11-15.43,8.94,37.55,27.6c6.96-4,13.94-7.96,20.87-11.97-1.61-15.49-3.38-30.99-5.03-46.49l-15.63,8.93c-1.04-1.62-2.05-3.27-3.07-4.9h-.04ZM17.63,63.95c16.67-9.6,33.31-19.21,49.96-28.84,1.88,3.03,3.7,6.12,5.51,9.19l-44.71,25.81v51.41h-10.78c0-19.19-.02-38.38.02-57.58ZM177.1,44.51l5.5-9.39c16.61,9.6,33.17,19.25,49.78,28.84.03,19.19,0,38.38.02,57.58h-10.77v-51.41l-44.52-25.62h0ZM17.61,130.26h10.77v51.36c15.29,8.97,31.45,18.21,44.73,25.85l-5.49,9.38c-16.69-9.58-33.31-19.24-50-28.83-.03-19.25,0-38.51,0-57.78h0ZM221.62,130.26h10.77c0,19.26.02,38.51,0,57.78-16.61,9.59-33.17,19.24-49.78,28.84l-5.5-9.39c14.83-8.63,29.72-17.18,44.52-25.86v-51.36h0ZM75.08,221.12l5.51-9.39,44.49,25.81,44.52-25.81,5.51,9.39-50,28.88-50.03-28.88Z"/>
</svg>