<?xml version="1.0" encoding="UTF-8"?>
<svg id="Camada_1" xmlns="http://www.w3.org/2000/svg" version="1.1" viewBox="0 0 150 150">
  <!-- Generator: Adobe Illustrator 30.4.0, SVG Export Plug-In . SVG Version: 2.1.4 Build 226)  -->
  <defs>
    <style>
      .st0 {
        fill: #fff;
      }

      .st1 {
        fill: #007acc;
      }
    </style>
  </defs>
  <path class="st0" d="M25.4,54.62h119.6v88.4H25.4V54.62Z"/>
  <path class="st1" d="M0,74.91v75h150V-.09H0v75ZM120.88,68.91c3.59.83,6.86,2.71,9.38,5.4,1.39,1.45,2.6,3.06,3.6,4.8,0,.19-6.48,4.57-10.43,7.02-.14.1-.72-.53-1.36-1.48-1.46-2.53-4.12-4.13-7.04-4.24-4.55-.31-7.48,2.08-7.45,6-.04.98.19,1.95.65,2.81,1,2.08,2.86,3.31,8.69,5.83,10.74,4.62,15.34,7.67,18.19,12,3.19,4.8,3.9,12.55,1.74,18.29-2.4,6.24-8.28,10.48-16.6,11.88-3.8.44-7.64.39-11.42-.12-5.81-.96-11.15-3.74-15.26-7.96-1.38-1.52-4.07-5.5-3.9-5.78.44-.33.9-.62,1.38-.88l5.56-3.07,4.31-2.5.9,1.33c1.52,2.17,3.45,4.02,5.69,5.45,4.8,2.52,11.35,2.17,14.59-.74,2.24-2.2,2.59-5.7.83-8.3-1.2-1.67-3.6-3.07-10.31-6-7.74-3.34-11.08-5.4-14.12-8.69-1.9-2.17-3.31-4.73-4.12-7.5-.6-3.17-.69-6.41-.26-9.6,1.6-7.48,7.2-12.7,15.38-14.24,3.79-.47,7.63-.36,11.39.31v-.02ZM85.67,75.2v6.14h-19.48v55.48h-13.81v-55.49h-19.52v-6c-.06-2.07-.01-4.14.14-6.2.1-.11,12-.11,26.4-.11h26.2l.07,6.18Z"/>
</svg>