<?xml version="1.0" encoding="UTF-8"?>
<svg id="Camada_1" xmlns="http://www.w3.org/2000/svg" version="1.1" xmlns:xlink="http://www.w3.org/1999/xlink" viewBox="0 0 512 512">
  <!-- Generator: Adobe Illustrator 30.4.0, SVG Export Plug-In . SVG Version: 2.1.4 Build 226)  -->
  <defs>
    <linearGradient id="Gradiente_sem_nome_17" data-name="Gradiente sem nome 17" x1="0" y1="285.59" x2="511.87" y2="285.59" gradientUnits="userSpaceOnUse">
      <stop offset="0" stop-color="#010101"/>
      <stop offset="1" stop-color="#000"/>
    </linearGradient>
    <linearGradient id="Gradiente_sem_nome_14" data-name="Gradiente sem nome 14" x1=".15" y1="159.63" x2="512" y2="159.63" gradientUnits="userSpaceOnUse">
      <stop offset="0" stop-color="#010101"/>
      <stop offset="1" stop-color="#000"/>
    </linearGradient>
  </defs>
  <path class="st0" d="M511.87,408.1c-1.11,9.7-6.73,15.41-15.77,16.44H15.76c-9.06-.99-14.5-6.93-15.76-15.95L.04,146.63l249.76,136.36c4.7,1.93,8.4,1.77,13.02-.37l249.01-135.95.04,261.43Z"/>
  <path class="st1" d="M512,114.58l-256,139.79L.22,114.74l-.07-33.68c-.02-9.28,7.63-16.19,16.95-16.17h477.66c9.63.02,16.33,6.92,17.03,16.13l.21,33.55Z"/>
</svg>