<?xml version="1.0" standalone="no"?>
<!DOCTYPE svg PUBLIC "-//W3C//DTD SVG 20010904//EN"
 "http://www.w3.org/TR/2001/REC-SVG-20010904/DTD/svg10.dtd">
<svg version="1.0" xmlns="http://www.w3.org/2000/svg"
 width="512.000000pt" height="512.000000pt" viewBox="0 0 512.000000 512.000000"
 preserveAspectRatio="xMidYMid meet">

<g transform="translate(0.000000,512.000000) scale(0.100000,-0.100000)"
fill="#000000" stroke="none">
<path d="M381 5100 c-161 -43 -283 -154 -349 -317 l-27 -68 0 -2155 0 -2155
27 -68 c61 -153 175 -262 328 -313 53 -18 134 -19 2205 -19 l2150 0 59 23
c123 46 240 149 290 256 60 126 57 -10 54 2308 l-3 2123 -27 68 c-34 83 -71
138 -134 198 -68 63 -128 96 -219 119 -77 20 -110 20 -2179 19 -2045 0 -2103
-1 -2175 -19z m1156 -1005 c288 -22 602 -251 826 -601 107 -168 220 -407 291
-619 28 -83 46 -121 58 -123 22 -4 26 13 38 154 5 66 16 152 24 191 23 109
144 483 172 531 50 85 158 124 234 85 47 -25 152 -153 195 -238 45 -91 63
-185 76 -402 14 -236 44 -403 68 -377 5 5 50 70 101 144 206 300 321 434 404
471 64 28 162 28 222 -1 53 -26 104 -86 141 -166 22 -49 27 -76 31 -164 6
-169 -20 -271 -212 -814 -75 -211 -90 -301 -81 -481 11 -234 45 -359 106 -390
40 -21 95 -19 205 10 53 14 112 25 130 25 56 0 100 25 184 105 59 56 86 76
103 73 40 -6 31 -40 -31 -119 -106 -134 -183 -188 -322 -224 -74 -20 -173 -16
-232 9 -51 22 -159 134 -196 203 -99 188 -90 341 73 1173 94 482 101 536 82
582 -20 47 -52 57 -111 34 -66 -25 -105 -61 -181 -165 -218 -295 -240 -338
-410 -791 -93 -247 -118 -360 -119 -541 -1 -133 -1 -136 -30 -173 -31 -41 -94
-75 -139 -76 -63 0 -87 132 -51 286 17 76 57 351 79 547 19 172 19 513 0 687
-14 124 -51 353 -77 474 -12 59 -77 136 -114 136 -102 0 -164 -285 -274 -1260
-41 -364 -110 -1054 -110 -1099 0 -63 -138 -144 -296 -173 -62 -11 -67 -11
-81 8 -20 27 -11 78 48 267 175 559 201 1007 94 1595 -39 207 -70 316 -125
430 -69 143 -138 240 -250 352 -158 158 -331 257 -512 294 -96 20 -273 21
-370 2 -378 -73 -697 -369 -800 -743 -19 -67 -22 -106 -22 -278 -1 -173 2
-214 22 -301 34 -151 87 -300 132 -370 91 -138 271 -271 471 -346 72 -27 98
-32 179 -32 89 -1 100 1 162 32 124 63 210 165 260 311 35 101 33 250 -5 351
-36 99 -87 165 -170 221 -75 50 -87 63 -87 96 0 59 111 69 223 19 68 -30 155
-114 205 -198 156 -263 108 -564 -134 -844 -109 -126 -210 -168 -394 -167
-164 2 -335 56 -483 152 -222 145 -342 301 -422 546 -104 321 -121 632 -49
883 103 353 440 659 849 768 93 25 248 44 305 38 14 -2 57 -6 97 -9z"/>
</g>
</svg>
