<?xml version="1.0" encoding="UTF-8"?>
<svg id="Camada_1" xmlns="http://www.w3.org/2000/svg" version="1.1" viewBox="0 0 250 250">
  <!-- Generator: Adobe Illustrator 30.4.0, SVG Export Plug-In . SVG Version: 2.1.4 Build 226)  -->
  <path d="M126.86,10.83s-2.85,109.14-4.03,153.94l-16-23.39,10.29,28.28-31.89,4.64,31.89,4.64-12.33,24.16,17.57-18.45c-.91,35.05-1.12,43.68-1.12,43.68,0,0-78.67-36.53-34.94-117.26,0,0-54.53-60.2-5.14-97.19,0,0-84.34,50.93-30.82,138.37,0,0-44.24-43.21-21.11-86.88,0,0-40.1,56.55,8.78,118.78,0,0-13.35-8.19-25.17-39.58,0,0,8.6,93.41,113.12,94.62h2.09c104.46-1.21,113.12-94.6,113.12-94.6-12.03,31.34-25.42,39.58-25.42,39.58,48.86-62.23,8.76-118.78,8.76-118.78,23.13,43.72-21.11,86.88-21.11,86.88,53.49-87.41-30.83-138.36-30.83-138.36,49.37,37.04-5.14,97.18-5.14,97.18,43.72,80.72-34.94,117.26-34.94,117.26,0,0-.2-8.61-1.12-43.68,2.19,2.29,17.57,18.45,17.57,18.45l-12.33-24.16,31.91-4.64-31.91-4.64,10.29-28.28-16,23.39c-1.13-44.7-3.97-153.05-4.03-153.96h0Z"/>
</svg>