<?xml version="1.0" encoding="UTF-8"?>
<svg id="Layer_1" xmlns="http://www.w3.org/2000/svg" version="1.1" viewBox="0 0 250 250">
  <!-- Generator: Adobe Illustrator 30.4.0, SVG Export Plug-In . SVG Version: 2.1.4 Build 226)  -->
  <path d="M125,0h0C55.96,0,0,55.96,0,125h0c0,69.04,55.96,125,125,125h0c69.04,0,125-55.96,125-125h0C250,55.96,194.04,0,125,0ZM90.04,177.29h-24.37v-77.98h24.37v77.98ZM77.2,89.55h-.2c-8.84,0-14.55-5.96-14.55-13.53s5.91-13.53,14.89-13.53,14.5,5.81,14.7,13.53c.05,7.52-5.66,13.53-14.84,13.53ZM187.5,177.29h-27.64v-40.33c0-10.55-4.3-17.77-13.82-17.77-7.28,0-11.33,4.88-13.18,9.57-.68,1.66-.59,4-.59,6.4v42.14h-27.39s.34-71.48,0-77.98h27.39v12.26c1.61-5.37,10.35-12.99,24.32-12.99,17.33,0,30.91,11.23,30.91,35.35v43.36h0Z"/>
</svg>