<?xml version="1.0" encoding="UTF-8"?>
<svg id="Camada_1" xmlns="http://www.w3.org/2000/svg" version="1.1" viewBox="0 0 150 150">
  <!-- Generator: Adobe Illustrator 30.4.0, SVG Export Plug-In . SVG Version: 2.1.4 Build 226)  -->
  <defs>
    <style>
      .st0 {
        fill: #001e36;
      }

      .st1 {
        fill: #31a8ff;
      }
    </style>
  </defs>
  <path id="Vector" class="st0" d="M123.1,0H26.9C12.04,0,0,12.04,0,26.9v96.2c0,14.86,12.04,26.9,26.9,26.9h96.2c14.86,0,26.9-12.04,26.9-26.9V26.9c0-14.86-12.04-26.9-26.9-26.9Z"/>
  <path id="Vector_2" class="st1" d="M52.38,39.82c19.61,0,30.65,9.18,30.65,24.56,0,17.96-14.96,25.18-29,25.18h-9.49v19.4h-19.2V39.82h27.04ZM44.54,56.23v16.92h8.46c5.88,0,10.01-2.37,10.01-8.36,0-5.47-3.51-8.57-9.6-8.57h-8.88Z"/>
  <path id="Vector_3" class="st1" d="M86.93,105.56l.1-16c5.47,3.61,13.11,5.88,18.37,5.88,3.61,0,5.26-1.03,5.26-2.89,0-2.06-2.27-2.89-6.61-4.23-8.36-2.48-17.54-5.88-17.54-16.82s9.18-17.34,22.5-17.34c6.3,0,11.46.93,16,2.89l-.1,15.27c-3.61-2.17-10.73-4.13-15.38-4.13-3.41,0-4.75,1.03-4.75,2.58,0,1.86,1.65,2.37,6.6,3.92,9.6,2.89,17.65,5.99,17.65,17.23s-8.77,17.96-22.5,17.96c-7.22,0-14.04-1.24-19.61-4.33Z"/>
</svg>