<?xml version="1.0" encoding="UTF-8"?>
<svg id="Camada_1" xmlns="http://www.w3.org/2000/svg" version="1.1" xmlns:xlink="http://www.w3.org/1999/xlink" viewBox="0 0 150 150">
  <!-- Generator: Adobe Illustrator 30.4.0, SVG Export Plug-In . SVG Version: 2.1.4 Build 226)  -->
  <defs>
    <style>
      .st0 {
        fill: url(#Gradiente_sem_nome);
      }

      .st1 {
        fill: url(#Gradiente_sem_nome_2);
      }

      .st1, .st2, .st3 {
        fill-rule: evenodd;
      }

      .st3 {
        fill: url(#Gradiente_sem_nome_3);
      }
    </style>
    <linearGradient id="Gradiente_sem_nome" data-name="Gradiente sem nome" x1="-881.01" y1="615.26" x2="-881.01" y2="615.03" gradientTransform="translate(193045.5 387616) scale(219 -630)" gradientUnits="userSpaceOnUse">
      <stop offset="0" stop-color="#ebbb14"/>
      <stop offset="1" stop-color="#b25400"/>
    </linearGradient>
    <linearGradient id="Gradiente_sem_nome_2" data-name="Gradiente sem nome 2" x1="-880.56" y1="615.27" x2="-880.56" y2="615.03" gradientTransform="translate(192916.5 291061) scale(219 -473)" gradientUnits="userSpaceOnUse">
      <stop offset="0" stop-color="#f9e583"/>
      <stop offset="1" stop-color="#de9800"/>
    </linearGradient>
    <linearGradient id="Gradiente_sem_nome_3" data-name="Gradiente sem nome 3" x1="-880.11" y1="615.29" x2="-880.11" y2="615.05" gradientTransform="translate(192789.5 193891.0188) scale(219 -315)" gradientUnits="userSpaceOnUse">
      <stop offset="0" stop-color="#f9e68b"/>
      <stop offset="1" stop-color="#f3cd32"/>
    </linearGradient>
  </defs>
  <g id="PBI-Logo">
    <g id="Group">
      <rect id="Rectangle" class="st0" x="78.98" y="1.04" width="51.78" height="148.96" rx="6.83" ry="6.83"/>
      <g id="Combined-Shape">
        <path id="path-3" class="st2" d="M100.26,143.85v6.15h-45.63c-3.4,0-6.15-2.75-6.15-6.15V44.31c0-3.4,2.75-6.15,6.15-6.15h39.49c3.4,0,6.15,2.75,6.15,6.15v99.55Z"/>
        <path id="path-31" data-name="path-3" class="st1" d="M100.26,143.85v6.15h-45.63c-3.4,0-6.15-2.75-6.15-6.15V44.31c0-3.4,2.75-6.15,6.15-6.15h39.49c3.4,0,6.15,2.75,6.15,6.15v99.55Z"/>
      </g>
      <path id="Combined-Shape1" data-name="Combined-Shape" class="st3" d="M70.23,143.85v6.15H24.6c-3.4,0-6.15-2.75-6.15-6.15v-62.19c0-3.4,2.75-6.15,6.15-6.15h39.49c3.4,0,6.15,2.75,6.15,6.15v62.19Z"/>
    </g>
  </g>
</svg>