<?xml version="1.0" encoding="UTF-8"?>
<svg id="Camada_1" xmlns="http://www.w3.org/2000/svg" version="1.1" viewBox="0 0 150 150">
  <!-- Generator: Adobe Illustrator 30.4.0, SVG Export Plug-In . SVG Version: 2.1.4 Build 226)  -->
  <defs>
    <style>
      .st0 {
        fill: #2c2e34;
      }

      .st1 {
        fill: #fda703;
      }
    </style>
  </defs>
  <path class="st0" d="M0,0v150h150V0H0Z"/>
  <path class="st1" d="M61.11,56.99c-6.02.35-9.93,3.71-12.83,8.31v-7.37h-5.54v46.09h5.54v-12.91l3.79.36c6.07.67,9.81-1.39,11.81-2.7,2-1.31,6.02-5.47,7.29-12.4,2.44-15.4-5.75-19.2-10.06-19.4h0ZM104.86,58.01l-10.12,24.68-12.16-24.67h-6.02l15.3,31.81c-4.63,11.29-9.38,11.15-15.86,9.75v4.89c11.87,1.92,15.51-3.4,18.38-8.68,1.12-1.98,2.12-3.99,2.99-6.05l13.24-31.72h-5.73ZM36.46,58.88L4.23,74.93l32.23,16.12v-4.96s-22.02-11.15-22.02-11.15l22.02-11.03v-5.02ZM113.54,58.96v5.02l22.02,11.03-22.02,11.15v4.96l32.23-16.12-32.23-16.04ZM59.21,62.38c5.31,0,6.82,6.05,6.34,12.11-1.32,10.38-7.96,14.15-17.28,11.67v-14.22c2.62-4.94,7.6-9.55,10.94-9.55h0Z"/>
</svg>