<?xml version="1.0" encoding="UTF-8"?>
<svg id="Camada_1" xmlns="http://www.w3.org/2000/svg" version="1.1" xmlns:xlink="http://www.w3.org/1999/xlink" viewBox="0 0 128 128">
  <!-- Generator: Adobe Illustrator 30.4.0, SVG Export Plug-In . SVG Version: 2.1.4 Build 226)  -->
  <defs>
    <style>
      .st0 {
        fill: url(#Gradiente_sem_nome);
      }

      .st1 {
        fill: url(#Gradiente_sem_nome_78);
      }
    </style>
    <linearGradient id="Gradiente_sem_nome" data-name="Gradiente sem nome" x1="744.96" y1="185.91" x2="866.35" y2="290.35" gradientTransform="translate(-420.33 -100.56) scale(.56)" gradientUnits="userSpaceOnUse">
      <stop offset="0" stop-color="#5a9fd4"/>
      <stop offset="1" stop-color="#306998"/>
    </linearGradient>
    <linearGradient id="Gradiente_sem_nome_78" data-name="Gradiente sem nome 78" x1="913.22" y1="353.57" x2="869.87" y2="292.24" gradientTransform="translate(-420.33 -100.56) scale(.56)" gradientUnits="userSpaceOnUse">
      <stop offset="0" stop-color="#edca47"/>
      <stop offset="1" stop-color="#ffe873"/>
    </linearGradient>
  </defs>
  <path class="st0" d="M63.26,1.43c-5.1.02-9.98.46-14.27,1.22-12.63,2.23-14.93,6.9-14.93,15.52v11.38h29.85v3.79H22.86c-8.68,0-16.27,5.21-18.65,15.14-2.74,11.37-2.86,18.47,0,30.34,2.12,8.84,7.19,15.14,15.87,15.14h10.27v-13.64c0-9.85,8.52-18.55,18.65-18.55h29.82c8.3,0,14.93-6.84,14.93-15.17v-28.43c0-8.09-6.83-14.17-14.93-15.52-5.13-.85-10.45-1.24-15.56-1.22ZM47.12,10.58c3.08,0,5.6,2.56,5.6,5.71s-2.52,5.67-5.6,5.67-5.6-2.54-5.6-5.67c0-3.15,2.51-5.71,5.6-5.71Z"/>
  <path class="st1" d="M97.47,33.34v13.26c0,10.28-8.71,18.93-18.65,18.93h-29.82c-8.17,0-14.93,6.99-14.93,15.17v28.43c0,8.09,7.03,12.85,14.93,15.17,9.45,2.78,18.51,3.28,29.82,0,7.52-2.18,14.93-6.56,14.93-15.17v-11.38h-29.82v-3.79h44.75c8.68,0,11.91-6.05,14.93-15.14,3.12-9.35,2.98-18.35,0-30.34-2.14-8.64-6.24-15.14-14.93-15.14h-11.21ZM80.69,105.33c3.1,0,5.6,2.54,5.6,5.67s-2.51,5.71-5.6,5.71-5.6-2.56-5.6-5.71,2.52-5.67,5.6-5.67Z"/>
</svg>